<?xml version="1.0" standalone="yes"?>
<svg xmlns="http://www.w3.org/2000/svg" width="545" height="545">
<path style="fill:#1c8ea6; stroke:none;" d="M191 107C199.541 119.125 214.893 126.742 221.761 140.004C226.013 148.215 224 160.026 224 169L224 231L224 250C223.999 253.256 224.379 256.955 222.682 259.891C220.136 264.298 215.365 263.752 211 264.439C202.867 265.72 195.223 267.804 188 271.876C158.801 288.336 143.358 325.86 158.12 357C160.848 362.754 164.588 368.393 169.09 372.91C186.846 390.729 210.532 391 234 391C241.384 391 250.807 389.433 257.96 391.318C263.373 392.744 266.57 400.113 271.001 403.387C276.931 407.77 283.879 407.669 289.961 411.013C294.137 413.309 296.82 418.325 299.651 422C305.757 429.924 311.544 438.081 317.651 446C321.339 450.782 325.149 455.789 331 458.005C341.916 462.141 356.647 451.126 353.667 439.059C352.331 433.647 339.497 430.84 335 427.899C324.012 420.714 315.606 409.727 312.159 397C310.348 390.313 312.311 376.442 303.995 374.318C297.073 372.549 288.131 374 281 374L237 374C214.282 374 192.93 374.744 177.39 355C174.602 351.458 172.481 347.178 170.826 343C168.202 336.377 168 330.016 168 323L185 322.999C187.369 322.983 190.45 323.281 192.254 321.397C194.876 318.658 193.329 314.289 189.891 313.318C184.002 311.655 176.108 313 170 313C173.942 295.969 188.104 281.338 205 276.595C212.81 274.402 227.442 276.574 232.062 268.956C236.382 261.831 234 249.028 234 241L234 173L234 151C234.008 147.228 233.779 143.122 237.148 140.603C239.909 138.539 243.759 139.001 247 139L268 139C268 126.339 269.151 114.49 277.043 104C281.386 98.2278 288.654 94.2092 292 88C258.509 81.091 218.118 83.8873 191 107M245 150L245 163L373 163C388.048 163 410.086 158.475 420.467 172.004C425.626 178.727 424 188.01 424 196L424 248C429.715 246.175 433.861 242.286 437.96 237.999C455.433 219.721 456.312 192.448 444.691 171C429.52 142.999 401.881 123.693 374 109.753C358.805 102.156 342.848 96.0639 326 93.4391C306.258 90.3634 285.037 101.84 280.043 122C278.251 129.234 281.919 141.972 276.427 147.566C273.69 150.355 269.587 149.994 266 150L245 150M141 333C141.66 324.633 142.714 315.943 145.541 308C147.873 301.447 151.92 295.574 154 289C139.651 289 115.434 293.958 109.804 276C108.066 270.456 109 263.748 109 258C98.5956 258 85.0786 260.319 75.0193 257.682C69.1526 256.144 69.7941 249.618 75.0193 247.603C78.5407 246.246 83.2917 247 87 247L111 247C114.393 247 118.731 247.678 121.945 246.397C128.249 243.883 128.392 232.045 133.185 227.105C141.68 218.35 155.931 221 167 221L167 175C167 163.178 166.526 151.581 169.34 140C171.649 130.495 177.618 122.935 181 114C151.065 114 123.635 124.369 104.899 149C101.086 154.013 98.0356 159.368 95.2477 165C94.0681 167.383 92.2582 170.223 92.5309 173C92.8937 176.696 96.5702 179.553 99.0008 182L117.999 201C120.728 203.744 126.872 208.38 124.149 212.848C120.175 219.367 113.032 211.015 110 207.999L93 191C90.571 188.576 87.5814 184.505 84 183.832C80.9684 183.262 78.1562 185.865 76.0039 187.62C37.0546 219.378 39.7204 289.36 79 319.1C97.849 333.372 118.577 333 141 333M189 122C177.197 141.284 178 160.185 178 182L212 182L212 158C212 153.865 212.666 149.022 211.566 145C210.557 141.311 207.594 138.634 204.996 136C200.133 131.068 195.335 124.954 189 122z"/>
<path style="fill:#f1f5fa; stroke:none;" d="M298.228 139.742C293.177 142.103 295.572 148.295 300.019 149.566C305.992 151.274 313.82 150 320 150L360 150C365.324 150 375.312 151.885 379.681 148.258C384.725 144.071 379.711 139.343 374.996 139.044C357.151 137.912 338.884 139 321 139C314.6 139 304.1 136.998 298.228 139.742z"/>
<path style="fill:#1c8ea6; stroke:none;" d="M265 198L251 198L251 209L262 209L260 223L247 223L247 234L258 234C256.9 239.331 255.433 244.558 255 250C258.062 250 262.853 250.853 265.486 248.972C269.165 246.345 268.916 238.046 269 234L283 234C282.016 239.279 281.111 244.626 281 250L292 250L295 234C298.35 234 305.629 235.354 307.972 232.397C309.769 230.129 309 225.703 309 223L298 223C298.1 218.196 299.363 213.729 300 209L313 209L313 198L302 198C303.261 192.765 303.955 187.384 304 182C301.049 182 296.08 181.1 293.6 183.028C290.425 185.495 290.298 194.258 290 198L277 198L279 182C275.987 182 271.13 181.127 268.564 183.028C265.063 185.621 265.17 194.048 265 198M325 192L410 192C409.998 189.114 410.839 184.157 407.682 182.603C403.217 180.406 394.901 182 390 182L347 182C341.604 182 332.221 180.191 327.318 182.603C324.161 184.157 325.002 189.114 325 192M178 221L212 221L212 193L188 193C185.383 193.001 180.891 192.25 179.028 194.603C177.532 196.492 178.005 199.764 178 202L178 221M325 202L325 211L410 211L410 202L325 202z"/>
<path style="fill:#f1f5fa; stroke:none;" d="M274 209L272 223C275.46 223 281.509 224.14 284.436 221.972C287.647 219.594 287.328 212.608 288 209L274 209z"/>
<path style="fill:#1c8ea6; stroke:none;" d="M463 209C461.441 216.532 459.389 224.219 455.688 231C447.451 246.087 433.005 258.97 416 263.1C408.053 265.03 399.129 264 391 264L345 264L314 264C310.181 264 304.582 263.064 301.434 265.742C298.537 268.206 299.006 272.59 299 276L299 301C295.488 299.237 291.971 298.157 288 298.044C264.01 297.364 265.083 338.3 289 336.787C293.001 336.534 296.494 334.772 300 333C300.946 337.413 306.233 336 310 336L310 274L380 274L400 274C403.102 274 407.003 273.417 409.941 274.603C416.287 277.166 413.963 288.575 414.001 294C414.021 296.904 413.678 300.717 417.147 301.677C427.932 304.664 422.923 285.462 424.318 280.005C425.32 276.086 429.915 272.61 433.258 276.438C435.626 279.151 434.999 283.682 435 287C435.003 295.237 437.678 308.356 427.996 312.106C421.921 314.46 414.367 312.494 408.005 313.059C404.706 313.351 401.677 315.126 402.377 318.946C403.881 327.166 417.869 320.075 422.397 324.603C425.903 328.11 421.501 336.027 426.318 338.397C429.674 340.048 435.348 339 439 339C457.174 339 472.979 332.111 479.935 314C488.932 290.576 487.108 262.614 480.291 239C477.236 228.42 471.704 216.086 463 209M325 221L325 230L410 230L410 221L325 221M120 258C120 262.967 118.37 271.593 121.742 275.682C125 279.632 133.459 278 138 278C145.368 278 156.046 279.958 163 277.397C168.94 275.209 174.644 268.614 180 265C174.273 262.597 166.173 264.032 160 263.999C156.922 263.983 152.907 264.272 150.762 261.566C145.606 255.064 157.06 253.022 161 253.001C178.332 252.909 195.667 253 213 253L213 232L166 232C159.495 232 150.142 230.297 144.005 232.603C137.663 234.986 138.954 240.99 136.558 245.999C133.36 252.685 127.181 256.919 120 258M325 240L325 250L377 250L377 240L325 240M288 275L288 265L254 265C249.363 265.01 243.538 265.408 245.323 271.853C246.506 276.125 252.623 275 256 275L288 275M321 286L321 336L326 336C326.001 328.452 327.746 325.142 332 319C337.708 325.216 341.76 335.698 351 336C347.568 327.882 340.646 321.461 336 314C341.725 311.33 346.392 306.121 350 301C339.436 301.255 333.787 311.944 326 318L326 286L321 286M358 286L358 336L363 336L363 331C365.482 333.208 367.753 335.093 371 336.057C373.605 336.83 376.337 337.051 379 336.467C400.742 331.701 394.354 295.37 372 300.685C368.313 301.562 365.773 303.534 363 306L363 286L358 286M215 302C214.018 297.419 207.884 299 204 299L204 336L215 336C215 329.427 213.335 320.189 215.742 314.005C216.972 310.845 220.275 307.554 223.956 308.662C227.176 309.631 228.55 312.951 228.891 316C229.622 322.526 229 329.434 229 336L240 336C240 329.276 236.611 309.976 246.015 308.377C249.771 307.738 252.458 310.688 253.427 314.005C255.361 320.62 254 329.147 254 336L265 336C265 323.307 269.509 300.705 252 298.305C246.379 297.534 242.479 301.691 237.424 301.579C235.177 301.529 233.082 299.717 230.996 299.016C224.96 296.988 219.945 298.346 215 302z"/>
<path style="fill:#f1f5fa; stroke:none;" d="M372 304.667C356.395 309.159 361.893 336.264 378.999 331.566C394.145 327.408 387.697 300.149 372 304.667M288.015 307.668C276.539 311.006 281.142 329.759 292.981 326.562C303.442 323.738 299.235 304.405 288.015 307.668z"/>
<path style="fill:#1c8ea6; stroke:none;" d="M286 345L286 365L293 365L293 362L289 362L289 348L293 348L293 345L286 345M303 345L303 348L307 348L307 362L303 362L303 365L310 365L310 345L303 345M209 347L209 351L205 349L204 353L207 354C205.814 355.186 205.416 355.528 204 356L205 360L209 358C209.497 361.066 210.036 362.032 213 363L213 358L217 360L218 356L215 355C216.186 353.814 216.584 353.472 218 353L217 349L213 351L213 347L209 347M243 359L266 359L266 350C260.67 350 255.33 349.904 250.001 350.005C248.016 350.042 245.41 349.865 244.028 351.603C242.532 353.484 243.008 356.768 243 359M449 350L389 350L346 350C340.036 350 331.63 348.502 326.019 350.742C319.073 353.516 321 363.027 321 369C321 386.099 321.326 402.484 335.004 414.826C348.994 427.45 367.629 427.937 385 423.471C417.436 415.13 448.707 385.426 449 350M227 353L227 356L238 356L238 353L227 353z"/>
<path style="fill:#f1f5fa; stroke:none;" d="M345.149 362.028C340.872 364.572 342.788 368.965 347.019 369.772C354.853 371.264 364.032 370 372 370C374.889 370 379.15 370.7 381.677 368.972C386.001 366.016 381.48 361.701 377.995 361.148C370.665 359.986 362.419 361 355 361C351.941 361 347.9 360.391 345.149 362.028M395.319 362.028C391.915 364.318 393.575 368.725 397.059 369.682C402.415 371.154 409.466 370.011 415 370C417.359 369.995 420.51 370.408 422.562 368.972C425.824 366.691 424.234 362.465 420.891 361.434C415.363 359.728 407.752 360.961 402 361.001C399.858 361.016 397.194 360.766 395.319 362.028M345.318 379.028C342.387 380.987 342.651 385.643 346.148 386.682C350.822 388.07 357.15 387 362 387L396 387C400.153 387 409.233 388.682 412.381 385.397C418.201 379.324 406.189 378.005 403 378L362 378C357.501 378 349.208 376.427 345.318 379.028M344.604 397.028C342.09 399.033 343.349 402.851 346.148 403.682C352.771 405.649 362.105 404.003 369 404C371.462 403.999 375.319 404.628 377.396 402.972C379.91 400.967 378.651 397.149 375.852 396.318C369.229 394.351 359.895 395.997 353 396C350.538 396.001 346.681 395.372 344.604 397.028z"/>
</svg>
